<svg width="61" height="68" viewBox="0 0 61 68" fill="none" xmlns="http://www.w3.org/2000/svg">
<g clip-path="url(#clip0_562_3274)">
<path d="M39.6826 56.6101H36.383C36.0356 56.6101 35.7534 56.3253 35.7534 55.9747V52.6438C35.7534 52.2932 36.0356 52.0083 36.383 52.0083H39.6826C40.0299 52.0083 40.3121 52.2932 40.3121 52.6438V55.9747C40.3338 56.3253 40.0516 56.6101 39.6826 56.6101Z" stroke="black" stroke-miterlimit="10"/>
<path d="M6.27344 42.9578H2.97378C2.62645 42.9578 2.34424 42.6729 2.34424 42.3223V38.9914C2.34424 38.6408 2.62645 38.356 2.97378 38.356H6.27344C6.62077 38.356 6.90296 38.6408 6.90296 38.9914V42.3223C6.92467 42.651 6.62077 42.9578 6.27344 42.9578Z" stroke="black" stroke-miterlimit="10"/>
<path d="M12.439 29.7441C14.4795 33.0093 17.0845 36.4497 20.1888 39.8682" stroke="black" stroke-miterlimit="10"/>
<path d="M40.3339 55.7774C45.6307 58.2974 49.9724 58.8014 52.0998 56.632C56.3546 52.3369 50.1677 39.0792 38.2499 27.0706C26.3321 15.04 13.2204 8.77272 8.96558 13.0897C6.99013 15.0838 7.27236 19.0064 9.31293 23.8493" stroke="black" stroke-miterlimit="10"/>
<path d="M20.167 39.8682C21.0136 40.7885 21.8819 41.7308 22.7937 42.6512C27.1136 47.012 31.5855 50.6058 35.7318 53.2135" stroke="black" stroke-miterlimit="10"/>
<path d="M48.9735 11.7531C44.1977 11.3148 36.2959 15.2155 28.2422 22.0306" stroke="black" stroke-miterlimit="10"/>
<path d="M22.7934 27.0708C10.8756 39.1014 4.66709 52.3372 8.94361 56.6322C12.8728 60.5986 24.3781 55.5804 35.4927 45.3029C36.4045 44.4483 37.3379 43.5717 38.2497 42.6514C48.9952 31.8042 55.0952 19.9489 53.0547 14.5801" stroke="black" stroke-miterlimit="10"/>
<path d="M2.32277 39.0795C0.8249 37.7866 0 36.3623 0 34.8721C0 28.7802 13.6544 23.8496 30.5 23.8496C47.3456 23.8496 61 28.7802 61 34.8721C61 39.9342 51.5352 44.2073 38.6623 45.5002" stroke="black" stroke-miterlimit="10"/>
<path d="M30.5216 45.8724C29.2408 45.8724 27.96 45.8505 26.7227 45.7848C18.7558 45.4342 11.7657 43.9659 6.9248 41.8403" stroke="black" stroke-miterlimit="10"/>
<path d="M26.9181 36.4934C26.4406 36.4934 26.0498 36.099 26.0498 35.6169V31.1246C26.0498 30.6425 26.4406 30.248 26.9181 30.248H31.3683C31.8459 30.248 32.2366 30.6425 32.2366 31.1246" stroke="black" stroke-miterlimit="10"/>
<path d="M34.1906 39.364H29.7404C29.2628 39.364 28.8721 38.9696 28.8721 38.4875V33.9952C28.8721 33.5131 29.2628 33.1187 29.7404 33.1187H34.1906C34.6682 33.1187 35.0589 33.5131 35.0589 33.9952V38.4875C35.0372 38.9915 34.6464 39.364 34.1906 39.364Z" stroke="black" stroke-miterlimit="10"/>
<path d="M52.9248 14.6019H49.6251C49.2778 14.6019 48.9956 14.317 48.9956 13.9664V10.6355C48.9956 10.2849 49.2778 10 49.6251 10H52.9248C53.2721 10 53.5543 10.2849 53.5543 10.6355V13.9664C53.576 14.2951 53.2938 14.6019 52.9248 14.6019Z" stroke="black" stroke-miterlimit="10"/>
</g>
<defs>
<clipPath id="clip0_562_3274">
<rect width="61" height="68" fill="white"/>
</clipPath>
</defs>
</svg>
