<svg width="23" height="20" viewBox="0 0 23 20" fill="none" xmlns="http://www.w3.org/2000/svg">
<path fill-rule="evenodd" clip-rule="evenodd" d="M3.29175 5.49898H3.26964C2.35543 5.49898 1.60343 5.23761 1.01362 4.71487C0.423808 4.19212 0.128906 3.537 0.128906 2.74949C0.128906 1.9484 0.43118 1.28989 1.03574 0.773931C1.64029 0.257974 2.40704 0 3.33599 0C4.23545 0 4.98008 0.25458 5.56989 0.763747C6.1597 1.27291 6.46197 1.92803 6.47672 2.72912C6.47672 3.53021 6.17813 4.19212 5.58095 4.71487C4.98376 5.23761 4.22071 5.49898 3.29175 5.49898ZM17.602 19.9796H22.2025C22.3647 19.9796 22.5011 19.9287 22.6117 19.8269C22.7223 19.725 22.7776 19.5995 22.7776 19.4501V12.1385C22.7776 11.1473 22.6448 10.2648 22.3794 9.49084C22.114 8.7169 21.727 8.05839 21.2182 7.51528C20.7095 6.97216 20.0939 6.55805 19.3714 6.27291C18.6489 5.98778 17.8232 5.84521 16.8942 5.84521C16.0685 5.84521 15.3644 5.96062 14.782 6.19145C14.1995 6.42227 13.7166 6.69382 13.3332 7.00611V6.70061C13.3332 6.55126 13.2743 6.42227 13.1563 6.31365C13.0383 6.20502 12.8983 6.15071 12.7361 6.15071H8.13556C8.06183 6.15071 7.9881 6.16429 7.91438 6.19145C7.84065 6.2186 7.7743 6.25933 7.71532 6.31365C7.65634 6.36796 7.6121 6.42906 7.58261 6.49694C7.55312 6.56483 7.54575 6.63951 7.56049 6.72098C7.57524 7.00611 7.58261 7.82756 7.58261 9.18534C7.58261 10.5431 7.57892 11.9756 7.57155 13.4827C7.56418 14.9898 7.56049 16.3544 7.56049 17.5764V19.4501C7.54575 19.518 7.55681 19.5859 7.59367 19.6538C7.63053 19.7217 7.67108 19.7828 7.71532 19.8371C7.7743 19.8914 7.84065 19.9321 7.91438 19.9593C7.9881 19.9864 8.06183 20 8.13556 20H12.7361C12.8983 20 13.0383 19.9457 13.1563 19.8371C13.2743 19.7284 13.3332 19.5995 13.3332 19.4501V12.3218C13.3332 12.1317 13.3443 11.9654 13.3664 11.8228C13.3885 11.6802 13.4143 11.5682 13.4438 11.4868C13.5323 11.3103 13.7129 11.0659 13.9857 10.7536C14.2585 10.4413 14.6824 10.2851 15.2575 10.2851C15.4787 10.2851 15.8252 10.3836 16.297 10.5804C16.7689 10.7773 17.0048 11.4596 17.0048 12.6273V19.4501C17.0048 19.5995 17.0638 19.725 17.1817 19.8269C17.2997 19.9287 17.4398 19.9796 17.602 19.9796ZM21.6053 18.9002H18.177V12.6273C18.177 11.5275 17.9227 10.6789 17.414 10.0815C16.9053 9.48404 16.1864 9.18534 15.2575 9.18534C14.6087 9.18534 14.0263 9.35506 13.5102 9.6945C12.9941 10.0339 12.6107 10.4956 12.3601 11.0794C12.2863 11.2288 12.2347 11.4053 12.2052 11.609C12.1757 11.8126 12.161 12.0502 12.161 12.3218V18.9002H8.73274C8.73274 18.3842 8.73642 17.59 8.7438 16.5173C8.75117 15.4447 8.75486 14.3143 8.75486 13.1263V9.71487C8.75486 8.62864 8.74748 7.80041 8.73274 7.23014H12.161V8.37067C12.1315 8.43856 12.1205 8.50984 12.1278 8.58452C12.1352 8.6592 12.161 8.73048 12.2052 8.79837C12.2642 8.89342 12.3379 8.9647 12.4264 9.01222C12.5149 9.05974 12.6107 9.0835 12.7139 9.0835H12.7582C12.8909 9.0835 13.0088 9.04616 13.1121 8.97149C13.2153 8.89681 13.2816 8.80516 13.3111 8.69654C13.6208 8.27563 14.0447 7.87848 14.5829 7.50509C15.1211 7.1317 15.8915 6.94501 16.8942 6.94501C17.6462 6.94501 18.3134 7.06042 18.8959 7.29124C19.4783 7.52207 19.9723 7.85811 20.3778 8.29939C20.7833 8.74067 21.0892 9.28377 21.2957 9.92872C21.5021 10.5737 21.6053 11.3102 21.6053 12.1385V18.9002ZM5.59201 19.9796H0.991501C0.829303 19.9796 0.689225 19.9287 0.571263 19.8269C0.4533 19.725 0.39432 19.5995 0.39432 19.4501V6.70061C0.39432 6.55126 0.4533 6.42227 0.571263 6.31365C0.689225 6.20502 0.829303 6.15071 0.991501 6.15071H5.59201C5.75421 6.15071 5.89428 6.20502 6.01225 6.31365C6.13021 6.42227 6.18919 6.55126 6.18919 6.70061V19.4501C6.18919 19.5995 6.13021 19.725 6.01225 19.8269C5.89428 19.9287 5.75421 19.9796 5.59201 19.9796ZM5.01694 18.9002H1.58868V7.23014H5.01694V18.9002ZM1.86515 1.53768C2.24116 1.23218 2.73143 1.07943 3.33599 1.07943C3.9258 1.07943 4.39764 1.23218 4.75153 1.53768C5.10542 1.84318 5.28973 2.24711 5.30448 2.74949C5.30448 3.25187 5.12016 3.6558 4.75153 3.9613C4.3829 4.2668 3.89631 4.41955 3.29175 4.41955H3.26964C2.69457 4.41955 2.22273 4.26341 1.8541 3.95112C1.48546 3.63883 1.30115 3.23829 1.30115 2.74949C1.30115 2.24711 1.48915 1.84318 1.86515 1.53768Z" fill="#E75213"/>
</svg>
