<svg width="72" height="72" viewBox="0 0 72 72" fill="none" xmlns="http://www.w3.org/2000/svg">
<path d="M36.3366 49.436C28.158 49.436 21.5605 42.9236 21.5605 34.9104V16.5256C21.5605 8.48562 28.1852 2 36.3366 2C44.5153 2 51.1127 8.51242 51.1127 16.5256V34.9104C51.14 42.9236 44.5153 49.436 36.3366 49.436Z" stroke="black" stroke-width="2" stroke-miterlimit="10"/>
<path d="M21.4238 34.4282H32.8194" stroke="black" stroke-width="2" stroke-miterlimit="10"/>
<path d="M21.4238 25.6914H32.8194" stroke="black" stroke-width="2" stroke-miterlimit="10"/>
<path d="M21.4238 16.9814H32.8194" stroke="black" stroke-width="2" stroke-miterlimit="10"/>
<path d="M39.7441 34.4282H51.1397" stroke="black" stroke-width="2" stroke-miterlimit="10"/>
<path d="M39.7441 25.6914H51.1397" stroke="black" stroke-width="2" stroke-miterlimit="10"/>
<path d="M39.7441 16.9814H51.1397" stroke="black" stroke-width="2" stroke-miterlimit="10"/>
<path d="M53.2118 70.9564C54.7112 70.9564 55.938 69.7504 55.938 68.2764V67.4456C55.938 65.9716 54.7112 64.7656 53.2118 64.7656H24.9409V70.9564H46.4235" stroke="black" stroke-width="2" stroke-miterlimit="10"/>
<path d="M24.9679 64.7656H19.7335C18.2341 64.7656 17.0073 65.9716 17.0073 67.4456V68.2764C17.0073 69.7504 18.2341 70.9564 19.7335 70.9564H24.9679V64.7656Z" stroke="black" stroke-width="2" stroke-miterlimit="10"/>
<path d="M13 28.8C13 27.5404 14.036 26.522 15.3173 26.522C16.5986 26.522 17.6346 27.5404 17.6346 28.8V34.9908C17.6346 45.2284 26.0858 53.5364 36.5 53.5364C46.9141 53.5364 55.3654 45.2284 55.3654 34.9908V28.8C55.3654 27.5404 56.4014 26.522 57.6827 26.522C58.964 26.522 60 27.5404 60 28.8V35.1248C60 47.8816 49.4768 58.1996 36.5273 58.1996C23.5505 58.1996 13.0545 47.8548 13.0545 35.1248" stroke="black" stroke-width="2" stroke-miterlimit="10"/>
<path d="M32.8193 61.4692H41.0798" stroke="black" stroke-width="2" stroke-miterlimit="10"/>
</svg>
