<?xml version="1.0" standalone="no"?>
<!DOCTYPE svg PUBLIC "-//W3C//DTD SVG 20010904//EN"
 "http://www.w3.org/TR/2001/REC-SVG-20010904/DTD/svg10.dtd">
<svg version="1.0" xmlns="http://www.w3.org/2000/svg"
 width="700.000000pt" height="700.000000pt" viewBox="0 0 700.000000 700.000000"
 preserveAspectRatio="xMidYMid meet">
<metadata>
Created by potrace 1.14, written by Peter Selinger 2001-2017
</metadata>
<g transform="translate(0.000000,700.000000) scale(0.100000,-0.100000)"
fill="#000000" stroke="none">
<path d="M2819 5243 l-355 -3 0 -900 c1 -495 -2 -900 -5 -900 -5 0 -73 56
-109 90 -25 23 -74 65 -195 169 -60 52 -114 99 -120 105 -5 6 -39 36 -75 66
-36 30 -67 57 -70 60 -3 3 -34 30 -70 60 -36 30 -69 60 -75 66 -5 5 -44 39
-85 75 -41 35 -77 66 -80 69 -3 3 -36 32 -75 65 -38 33 -72 62 -75 65 -3 3
-39 34 -80 70 -41 36 -77 67 -80 70 -4 5 -105 92 -304 264 -33 28 -103 89
-155 135 -53 46 -110 96 -126 110 -17 14 -64 55 -105 91 -41 35 -88 77 -104
92 -17 16 -32 24 -35 19 -5 -7 -6 -3385 -2 -3423 1 -5 163 -8 360 -8 l359 0 0
896 c0 492 2 897 4 899 2 2 19 -11 39 -28 151 -133 342 -302 379 -334 24 -21
83 -72 130 -114 47 -41 100 -89 119 -105 19 -16 41 -36 50 -45 9 -8 50 -44 91
-80 41 -35 93 -81 115 -101 22 -20 51 -46 65 -58 14 -11 52 -45 85 -74 67 -59
331 -292 385 -340 19 -17 89 -78 155 -136 66 -58 122 -107 125 -110 3 -3 59
-52 125 -110 66 -58 126 -110 133 -117 9 -9 44 21 160 139 179 184 208 213
649 664 193 197 402 411 463 474 62 63 257 263 434 443 176 181 320 333 318
338 -1 5 2 8 7 7 5 -2 56 45 113 104 56 58 250 256 430 440 180 183 439 448
577 588 l249 255 -431 3 -432 3 -110 -114 c-60 -63 -175 -183 -255 -267 -80
-84 -167 -177 -195 -205 -54 -57 -334 -352 -375 -395 -14 -15 -102 -107 -196
-206 -94 -98 -188 -197 -209 -219 -20 -22 -103 -109 -183 -194 -81 -84 -170
-178 -198 -207 -27 -30 -53 -54 -56 -54 -3 0 -4 114 -2 253 1 138 6 557 10
930 l6 677 -378 -2 c-209 -2 -539 -4 -735 -5z"/>
</g>
</svg>
