<svg width="61" height="68" viewBox="0 0 61 68" fill="none" xmlns="http://www.w3.org/2000/svg">
<path d="M9.56373 44.0896H3.42599C2.09169 44.0896 1 42.9916 1 41.6496V5.44C1 4.098 2.09169 3 3.42599 3H9.56373" stroke="#0B0033" stroke-miterlimit="10"/>
<path d="M60 41.6496C60 42.9916 58.9083 44.0896 57.574 44.0896H6.33712C5.00283 44.0896 3.91113 42.9916 3.91113 41.6496V5.44C3.91113 4.098 5.00283 3 6.33712 3H57.574C58.9083 3 60 4.098 60 5.44V35.4032" stroke="#0B0033" stroke-miterlimit="10"/>
<path d="M9.00586 64.0002L16.017 44.0898H43.3093L50.3204 64.0002" stroke="#0B0033" stroke-miterlimit="10"/>
<path d="M39.7915 44.0898L46.8026 64.0002" stroke="#0B0033" stroke-miterlimit="10"/>
<path d="M12.3779 64.0002L19.4133 44.0898" stroke="#0B0033" stroke-miterlimit="10"/>
<path d="M8.22949 40.9663H20.3109" stroke="#0B0033" stroke-miterlimit="10"/>
</svg>
