<svg width="61" height="68" viewBox="0 0 61 68" fill="none" xmlns="http://www.w3.org/2000/svg">
<g clip-path="url(#clip0_562_3273)">
<path d="M30.5547 47.7135C27.9314 49.4519 24.3806 48.7298 22.6582 46.082" stroke="#0B0033" stroke-miterlimit="10"/>
<path d="M26.3943 43.5946L42.7703 42.2573L50.0043 41.6689L60.6831 40.7863C60.948 40.7596 61.0805 40.4921 60.948 40.2782C57.7418 24.6858 49.5538 11.3934 36.7817 0.160471C36.6492 -0.0534903 36.3312 -0.0534903 36.1987 0.160471L30.3161 9.60149L26.4739 15.7796L21.8896 23.1346" stroke="#0B0033" stroke-miterlimit="10"/>
<path d="M6.83887 36.4001L15.6893 30.9708C16.9347 30.1952 18.5776 30.5964 19.3195 31.8801L26.3945 43.6213L15.2918 50.4413L6.83887 36.4001Z" stroke="#0B0033" stroke-miterlimit="10"/>
<path d="M9.70046 53.8378L15.2916 50.4144L6.86516 36.3999L1.27404 39.8233C0.0286218 40.5989 -0.368858 42.2303 0.373092 43.4874L6.07021 52.9284C6.81216 54.2121 8.42854 54.6134 9.70046 53.8378Z" stroke="#0B0033" stroke-miterlimit="10"/>
<path d="M28.6466 53.0622L33.3368 58.1438C34.4763 59.3741 34.2113 61.38 32.7804 62.2626L28.9646 64.6161C27.9047 65.2848 26.5003 65.0708 25.6523 64.1615L13.8076 51.3506" stroke="#0B0033" stroke-miterlimit="10"/>
<path d="M30.6873 63.5462L25.9441 66.4882C24.8842 67.1568 23.4797 66.9429 22.6318 66.0336L10.7871 53.2227" stroke="#0B0033" stroke-miterlimit="10"/>
<path d="M49.9775 41.6689L42.7435 42.2573C40.2527 31.7197 34.4231 22.4926 26.4736 15.7528L30.3159 9.57471C40.1202 17.5983 47.1952 28.8312 49.9775 41.6689Z" stroke="#0B0033" stroke-miterlimit="10"/>
</g>
<defs>
<clipPath id="clip0_562_3273">
<rect width="61" height="68" fill="white"/>
</clipPath>
</defs>
</svg>
