<svg width="145" height="120" viewBox="0 0 145 120" fill="none" xmlns="http://www.w3.org/2000/svg">
<g clip-path="url(#clip0_588_3432)">
<path d="M124.184 89.5949C113.89 107.752 94.3511 120 72 120C38.8785 120 12 93.1215 12 60C12 26.8785 38.8785 0 72 0C105.122 0 132 26.8785 132 60C132 66.9579 130.809 73.6775 128.616 79.9206" stroke="#0B0033" stroke-width="2" stroke-miterlimit="10"/>
<path d="M76.0032 13.4868H71.4282C69.5219 13.4868 67.8062 14.7259 67.2343 16.5845L53.8428 60.1905L67.2343 103.797C67.8062 105.655 69.5219 106.894 71.4282 106.894H75.6696" stroke="#0B0033" stroke-width="2" stroke-miterlimit="10"/>
<path d="M90.5861 60.1909L76.3367 106.561C76.1937 106.99 75.6219 106.99 75.4789 106.561L61.2295 60.1909L75.4789 13.8207C75.6219 13.3918 76.1937 13.3918 76.3367 13.8207L90.5861 60.1909Z" stroke="#0B0033" stroke-width="2" stroke-miterlimit="10"/>
<path d="M86.4878 25.7822C99.8317 31.4057 109.172 44.6067 109.172 59.9998C109.172 75.2977 99.927 88.451 86.6784 94.1698" stroke="#0B0033" stroke-width="2" stroke-miterlimit="10"/>
<path d="M57.3692 25.7822C44.0253 31.4057 34.6846 44.6067 34.6846 59.9998C34.6846 75.2977 43.93 88.451 57.1786 94.1698" stroke="#0B0033" stroke-width="2" stroke-miterlimit="10"/>
<path d="M115.416 59.9521H126.901" stroke="#0B0033" stroke-width="2" stroke-miterlimit="10"/>
<path d="M28.5844 60.0479H17.0991" stroke="#0B0033" stroke-width="2" stroke-miterlimit="10"/>
<path d="M102.691 29.309L110.793 21.1597" stroke="#0B0033" stroke-width="2" stroke-miterlimit="10"/>
<path d="M41.2613 29.3569L33.1597 21.2075" stroke="#0B0033" stroke-width="2" stroke-miterlimit="10"/>
<path d="M41.3568 90.7388L33.2075 98.8881" stroke="#0B0033" stroke-width="2" stroke-miterlimit="10"/>
<path d="M102.739 90.6909L110.84 98.8402" stroke="#0B0033" stroke-width="2" stroke-miterlimit="10"/>
<path d="M61.2295 60H90.3478" stroke="#0B0033" stroke-width="2" stroke-miterlimit="10"/>
</g>
<defs>
<clipPath id="clip0_588_3432">
<rect width="145" height="120" fill="white"/>
</clipPath>
</defs>
</svg>
