<svg width="145" height="120" viewBox="0 0 145 120" fill="none" xmlns="http://www.w3.org/2000/svg">
<g clip-path="url(#clip0_588_3456)">
<path fill-rule="evenodd" clip-rule="evenodd" d="M110.719 0.0114253C110.622 0.0483655 110.531 0.101992 110.453 0.171107L97.3869 10.3718C97.0442 10.6423 96.9692 11.1941 97.2263 11.5468L100.693 15.7665C98.4995 17.8662 97.7546 18.4584 95.6794 19.9861C90.997 23.4324 86.48 23.9318 82.0273 24.1521C77.5746 24.3725 73.1563 24.2784 69.1748 26.769C67.2864 27.9487 64.7017 29.6969 61.922 31.6286L53.9219 21.4279L58.0819 17.7433C58.4234 17.4406 58.4496 16.8472 58.1343 16.5147L46.0291 3.21699C45.8875 3.03705 45.6709 2.91908 45.4424 2.89643C45.2294 2.89166 45.0152 2.96912 44.8558 3.10974L4.27355 39.211C3.93204 39.5137 3.90587 40.1072 4.22 40.4396L16.3252 53.7374C16.6251 54.0484 17.1724 54.0734 17.4985 53.791L23.4186 48.5036C27.6179 52.1549 29.9942 54.9338 31.4187 57.316C32.8811 59.7625 33.3809 61.8096 33.8188 64.1525C34.6946 68.838 35.336 74.5784 42.9908 85.1949L64.9095 115.53C67.3965 118.979 71.9098 119.296 75.3618 117.559C77.2324 116.626 78.2379 114.766 78.4009 112.806C78.4199 112.578 78.4021 112.342 78.4009 112.111C81.0128 115.233 85.5322 116.095 88.6939 113.82C90.4741 112.539 91.4379 110.522 91.52 108.425L93.1728 110.508C95.8216 113.804 100.186 114.206 103.625 112.484C103.663 112.467 103.697 112.452 103.731 112.431C106.989 110.087 107.468 105.348 104.904 101.964L100.265 95.8759C102.324 96.4157 104.544 96.1583 106.505 95.1812C106.543 95.1645 106.576 95.149 106.611 95.1288C109.871 92.7824 110.349 88.029 107.784 84.6614L106.237 82.5784C112.19 78.6446 114.85 71.4866 117.436 64.8478C120.094 58.0256 122.673 51.8337 128.049 49.6803C128.087 49.6648 128.12 49.6469 128.155 49.6267L134.447 57.3701C134.733 57.6966 135.281 57.7467 135.62 57.4762L148.686 47.2754C149.029 47.0049 149.104 46.4532 148.847 46.1004L111.625 0.276762C111.46 0.103971 111.222 0.00387309 110.984 0.009831C110.895 -0.003277 110.806 -0.003277 110.718 0.009831L110.719 0.0114253ZM110.825 2.0408L146.984 46.4764L135.251 55.6095L99.0921 11.1738L110.825 2.0408ZM45.3367 4.97823L56.3233 17.0484L17.0205 51.9752L6.03512 39.905L45.3367 4.97823ZM101.759 17.1009L127.037 48.2357C121.077 50.8502 118.446 57.5103 115.839 64.204C113.228 70.9035 110.605 77.7174 105.173 81.2412L92.3739 64.3651C92.2204 64.1732 91.98 64.0529 91.7337 64.0445C91.0864 64.0243 90.6354 64.9263 91.04 65.4328L106.452 85.6744C108.48 88.3366 108.097 91.9163 105.705 93.686C102.86 95.0731 99.535 94.7645 97.4383 92.1369C92.9225 86.4621 88.3602 80.7494 83.8395 75.0472C83.2814 74.3477 81.9475 75.4166 82.5056 76.1149C87.2047 82.178 92.1107 88.2174 96.2113 93.3117L103.571 103.032C105.6 105.712 105.166 109.219 102.771 110.99C99.9441 112.376 96.6195 112.071 94.5048 109.441L90.7183 104.687C85.6359 98.2476 79.8992 91.1167 74.5588 84.4455C74.416 84.2334 74.1733 84.0916 73.9186 84.0714C73.232 84.0094 72.7489 85.0139 73.2249 85.5133L89.2238 105.54C90.4066 108.032 89.8355 110.914 87.7305 112.429C85.2923 114.184 81.5606 113.508 79.5175 110.826C74.2721 103.906 68.6688 96.5408 64.1052 90.5325C63.5745 89.8056 62.1882 90.8209 62.7189 91.5478C67.0017 97.0747 71.2853 102.756 75.4109 108.264C76.3509 109.587 76.8114 111.248 76.6912 112.697C76.5651 114.205 75.8963 115.423 74.6112 116.061C71.7494 117.502 68.2403 117.215 66.2922 114.512L44.3735 84.1771C36.859 73.7561 36.4164 68.6201 35.5205 63.8296C35.073 61.4344 34.5018 59.1262 32.9073 56.4593C31.383 53.908 28.8912 51.0075 24.748 47.38L52.6392 22.5459L60.4784 32.5868C55.3403 36.1869 49.6011 40.3659 45.1734 43.588C43.4361 44.8584 42.3104 46.3991 41.8667 48.0209C41.424 49.6428 41.6894 51.3422 42.6663 52.7207C44.4084 55.1779 47.1395 55.8858 49.9192 55.4973C52.6977 55.11 55.6833 53.7313 58.558 52.1334C61.4329 50.5342 64.1735 48.6584 66.4509 47.2203C67.5897 46.5017 68.619 45.9286 69.4376 45.5115C70.2563 45.0944 70.9263 44.9204 71.0905 44.924C71.8651 44.9395 72.948 45.7391 74.8234 47.3275C76.6987 48.9148 79.3117 51.1457 83.3565 53.5231C86.5694 55.4178 90.5996 56.5213 94.3419 56.7275C98.0842 56.9336 101.601 56.2496 103.782 54.1642C104.159 53.8723 104.206 53.2419 103.877 52.8975C103.547 52.552 102.917 52.5722 102.608 52.9357C100.983 54.4908 97.9117 55.2093 94.449 55.0187C90.9863 54.828 87.194 53.7567 84.2629 52.0276C80.3384 49.7217 77.8182 47.5792 75.9439 45.9931C74.0697 44.407 72.8264 43.2511 71.1436 43.2166H71.0912C70.288 43.1987 69.6014 43.5002 68.6911 43.9637C67.7808 44.4273 66.6991 45.0505 65.545 45.7798C63.2365 47.2384 60.4961 49.0879 57.7057 50.6395C54.9141 52.1922 52.1021 53.4566 49.7069 53.7902C47.3116 54.1238 45.479 53.6424 44.1069 51.7072C43.412 50.7276 43.2002 49.6218 43.5203 48.4491C43.8404 47.2764 44.6995 46.0658 46.187 44.9778C53.4897 39.6641 64.6192 31.6169 70.0787 28.2075C73.5545 26.0327 77.5503 26.0815 82.0782 25.8575C86.6062 25.6335 91.6453 25.0853 96.6908 21.3709C98.7209 19.8778 99.6062 19.1497 101.758 17.0988L101.759 17.1009Z" fill="black"/>
<path fill-rule="evenodd" clip-rule="evenodd" d="M26.9359 70.3222C26.7728 70.3175 26.6122 70.3592 26.4718 70.4438L25.8256 70.818L25.8233 70.8192C22.339 72.8283 21.3931 77.4732 23.6516 81.0507C23.6516 81.0519 23.6528 81.0507 23.6528 81.0507C24.9272 83.0837 26.9763 84.3994 29.1479 84.7902L24.5834 87.3844H24.5846C22.5379 88.5487 21.4254 90.3302 21.1552 92.1892C20.8862 94.0482 21.4074 95.9573 22.4201 97.5647C23.4327 99.1711 24.9475 100.495 26.7692 101.141C28.5898 101.787 30.7281 101.712 32.7761 100.557L33.7554 100.007C33.0379 102.078 33.2687 104.513 34.5693 106.588H34.5717C36.816 110.139 41.4057 111.489 44.8839 109.562C44.1914 111.62 44.4293 114.028 45.7276 116.083C45.7276 116.084 45.7287 116.083 45.7287 116.083C47.973 119.661 52.616 121.025 56.104 119.015V119.016C56.104 119.015 56.1052 119.015 56.1052 119.015L56.7537 118.639V118.638C57.1618 118.402 57.3011 117.879 57.0643 117.471C56.8287 117.063 56.3063 116.923 55.8993 117.159L55.2532 117.535L55.2508 117.536C52.6329 119.043 48.9536 118.016 47.1712 115.173H47.17C45.372 112.327 46.13 108.843 48.7514 107.333V107.332C49.1501 107.093 49.2845 106.577 49.0525 106.173C48.8193 105.768 48.3064 105.626 47.8994 105.852C47.8971 105.853 47.8959 105.852 47.8935 105.852L44.1155 108.032H44.112C41.4929 109.524 37.8123 108.513 36.0144 105.67C36.0144 105.669 36.0132 105.67 36.0132 105.67C34.233 102.826 34.9732 99.3474 37.6042 97.8352C37.6066 97.834 37.6077 97.8352 37.6101 97.8352C38.0207 97.6028 38.1635 97.082 37.9314 96.6709C37.6994 96.261 37.1782 96.1168 36.7688 96.3492H36.7629C36.7629 96.3492 36.7617 96.3504 36.7605 96.3504L31.9413 99.0626C30.2957 99.9909 28.7452 100.023 27.3409 99.5261C25.9367 99.028 24.6909 97.9579 23.8651 96.6483C23.0393 95.3374 22.6466 93.8062 22.8453 92.4298C23.044 91.0535 23.7818 89.8022 25.4287 88.8655L34.0261 83.9796C34.0273 83.9784 34.0285 83.9784 34.0309 83.9796L34.0297 83.9784C34.4391 83.7448 34.5818 83.2228 34.3474 82.8129C34.1142 82.403 33.593 82.2612 33.1837 82.4948H33.1706C30.5527 83.9962 26.8782 82.969 25.098 80.1281H25.0968C23.2988 77.2837 24.0568 73.7993 26.6782 72.2883H26.6771C26.6782 72.2883 26.6794 72.2883 26.6794 72.2871L27.328 71.9117C27.6623 71.7246 27.8313 71.3361 27.7397 70.9631C27.6493 70.5901 27.3208 70.3232 26.9377 70.3125L26.9359 70.3222Z" fill="black"/>
</g>
<defs>
<clipPath id="clip0_588_3456">
<rect width="145" height="120" fill="white"/>
</clipPath>
</defs>
</svg>
