<svg width="74" height="73" viewBox="0 0 74 73" fill="none" xmlns="http://www.w3.org/2000/svg">
<path d="M19.2854 65.8373L1.81934 70.9416L7.02692 53.8219C17.7933 51.9006 21.4211 56.2881 19.2854 65.8373Z" stroke="black" stroke-width="2" stroke-miterlimit="10"/>
<path d="M73 1.71685C72.8244 30.3931 46.5229 53.5349 39.0625 59.5283C37.98 60.3886 36.4002 60.3312 35.4055 59.3562L24.6684 48.832L13.9313 38.3078C12.9366 37.3328 12.8488 35.7843 13.7557 34.7233C19.8703 27.4108 43.4803 1.63083 72.7367 1.45877C72.8537 1.43009 73 1.57346 73 1.71685Z" stroke="black" stroke-width="2" stroke-miterlimit="10"/>
<path d="M52.9593 29.5328C57.6935 29.5328 61.5314 25.7711 61.5314 21.1307C61.5314 16.4903 57.6935 12.7285 52.9593 12.7285C48.225 12.7285 44.3872 16.4903 44.3872 21.1307C44.3872 25.7711 48.225 29.5328 52.9593 29.5328Z" stroke="black" stroke-width="2" stroke-miterlimit="10"/>
<path d="M36.0783 60.0156L13.1998 37.5908C12.5562 36.9599 11.6492 36.7018 10.7715 36.8452L10.1572 36.9599C7.99223 37.3614 7.173 39.9709 8.72359 41.4908L32.0995 64.4031C33.6501 65.923 36.3416 65.12 36.722 62.998L36.839 62.3958C37.0146 61.5355 36.722 60.6465 36.0783 60.0156Z" stroke="black" stroke-width="2" stroke-miterlimit="10"/>
<path d="M20.8945 26.9521C25.9266 38.3366 34.6158 46.8535 46.962 52.5027" stroke="black" stroke-width="2" stroke-miterlimit="10"/>
<path d="M52.696 59.5571L41.1982 70.8269" stroke="black" stroke-width="2" stroke-miterlimit="10"/>
<path d="M41.1107 65.2349L35.3472 70.9128" stroke="black" stroke-width="2" stroke-miterlimit="10"/>
<path d="M11.1227 24.0845L1 33.9778" stroke="black" stroke-width="2" stroke-miterlimit="10"/>
<path d="M18.0856 22.5645L13.6094 26.9519" stroke="black" stroke-width="2" stroke-miterlimit="10"/>
<path d="M48.8049 1L46.4644 3.2941" stroke="black" stroke-width="2" stroke-miterlimit="10"/>
<path d="M64.2814 41.4907L61.9409 43.7848" stroke="black" stroke-width="2" stroke-miterlimit="10"/>
</svg>
