<svg width="72" height="72" viewBox="0 0 72 72" fill="none" xmlns="http://www.w3.org/2000/svg">
<path d="M9.57888 6.93506C8.40435 6.93506 7.44336 7.88585 7.44336 9.04794V66.888C7.44336 68.0501 8.40435 69.0009 9.57888 69.0009C10.7534 69.0009 11.7144 68.0501 11.7144 66.888V9.04794C11.7144 7.88585 10.7534 6.93506 9.57888 6.93506Z" stroke="black" stroke-width="2" stroke-miterlimit="10"/>
<path d="M4 3H15.1581" stroke="black" stroke-width="2" stroke-miterlimit="10"/>
<path d="M51.1151 45.1253H15.1582V6.96143H51.1151C52.5833 6.96143 53.7845 8.14992 53.7845 9.60253V42.4842C53.7845 43.9368 52.5833 45.1253 51.1151 45.1253Z" stroke="black" stroke-width="2" stroke-miterlimit="10"/>
<path d="M51.1152 45.1257L33.1768 50.3023C33.1768 51.7549 34.378 52.9434 35.8462 52.9434H69.0002V19.0845H57.9755" stroke="black" stroke-width="2" stroke-miterlimit="10"/>
</svg>
