<svg width="145" height="120" viewBox="0 0 145 120" fill="none" xmlns="http://www.w3.org/2000/svg">
<g clip-path="url(#clip0_588_3442)">
<path d="M115.271 94.8862H14.5264C11.5822 94.8862 9.17334 92.4766 9.17334 89.5315V5.35476C9.17334 2.40964 11.5822 0 14.5264 0H137.647C140.591 0 143 2.40964 143 5.35476V89.5315C143 92.4766 140.591 94.8862 137.647 94.8862H129.939" stroke="#0B0033" stroke-width="2" stroke-miterlimit="10"/>
<path d="M19.9863 94.8862H7.35308C4.40888 94.8862 2 92.4766 2 89.5315V5.35476C2 2.40964 4.40888 0 7.35308 0H19.9863" stroke="#0B0033" stroke-width="2" stroke-miterlimit="10"/>
<path d="M49.1069 120H103.012" stroke="#0B0033" stroke-width="2" stroke-miterlimit="10"/>
<path d="M60.7231 120H91.3962L87.1138 94.8862H65.0056L62.5967 109.023" stroke="#0B0033" stroke-width="2" stroke-miterlimit="10"/>
<path d="M9.17334 80.9639H143" stroke="#0B0033" stroke-width="2" stroke-miterlimit="10"/>
<path d="M66.5046 13.3335L48.1971 31.6467C48.0365 31.8074 48.0365 32.0752 48.1971 32.2358L66.5046 50.5491" stroke="#0B0033" stroke-width="2" stroke-miterlimit="10"/>
<path d="M76.354 27.5234L94.6616 45.8367C94.8222 45.9973 94.8222 46.2651 94.6616 46.4258L76.354 64.739" stroke="#0B0033" stroke-width="2" stroke-miterlimit="10"/>
</g>
<defs>
<clipPath id="clip0_588_3442">
<rect width="145" height="120" fill="white"/>
</clipPath>
</defs>
</svg>
